<mxfile host="app.diagrams.net" agent="Mozilla/5.0 (X11; Linux x86_64) AppleWebKit/537.36 (KHTML, like Gecko) Chrome/131.0.0.0 Safari/537.36" version="25.0.1">
  <diagram name="Page-1" id="4uYNY1ddm91LXE7vqArr">
    <mxGraphModel dx="-1093" dy="765" grid="1" gridSize="10" guides="1" tooltips="1" connect="1" arrows="1" fold="1" page="1" pageScale="1" pageWidth="827" pageHeight="1169" math="0" shadow="0">
      <root>
        <mxCell id="0" />
        <mxCell id="1" parent="0" />
        <mxCell id="ULj_5l2b-d4UT1FlwqZ8-1" value="" style="rounded=0;whiteSpace=wrap;html=1;fontSize=20;fillColor=#fff2cc;strokeColor=#d6b656;" vertex="1" parent="1">
          <mxGeometry x="2780" y="895" width="180" height="175" as="geometry" />
        </mxCell>
        <mxCell id="ULj_5l2b-d4UT1FlwqZ8-2" value="" style="rounded=0;whiteSpace=wrap;html=1;" vertex="1" parent="1">
          <mxGeometry x="2780" y="940" width="180" height="106" as="geometry" />
        </mxCell>
        <mxCell id="ULj_5l2b-d4UT1FlwqZ8-3" value="" style="rounded=0;whiteSpace=wrap;html=1;fontSize=20;fillColor=#fff2cc;strokeColor=#d6b656;" vertex="1" parent="1">
          <mxGeometry x="3360" y="890" width="180" height="180" as="geometry" />
        </mxCell>
        <mxCell id="ULj_5l2b-d4UT1FlwqZ8-4" value="" style="rounded=0;whiteSpace=wrap;html=1;" vertex="1" parent="1">
          <mxGeometry x="3360" y="934" width="180" height="106" as="geometry" />
        </mxCell>
        <mxCell id="ULj_5l2b-d4UT1FlwqZ8-5" value="" style="endArrow=classic;html=1;rounded=0;entryX=0.008;entryY=0.376;entryDx=0;entryDy=0;entryPerimeter=0;strokeWidth=2;" edge="1" parent="1">
          <mxGeometry width="50" height="50" relative="1" as="geometry">
            <mxPoint x="3361.44" y="987.1800000000001" as="sourcePoint" />
            <mxPoint x="2960" y="986.5" as="targetPoint" />
          </mxGeometry>
        </mxCell>
        <mxCell id="ULj_5l2b-d4UT1FlwqZ8-7" value="&lt;font style=&quot;font-size: 20px;&quot;&gt;OrbitaStatus PDOs&lt;/font&gt;" style="text;html=1;align=center;verticalAlign=middle;whiteSpace=wrap;rounded=0;" vertex="1" parent="1">
          <mxGeometry x="3080" y="950" width="171" height="30" as="geometry" />
        </mxCell>
        <mxCell id="ULj_5l2b-d4UT1FlwqZ8-10" value="&lt;span style=&quot;font-size: 20px;&quot;&gt;read and verify mailbox PDOs&lt;/span&gt;" style="text;html=1;align=center;verticalAlign=middle;whiteSpace=wrap;rounded=0;" vertex="1" parent="1">
          <mxGeometry x="2810" y="970" width="131" height="46" as="geometry" />
        </mxCell>
        <mxCell id="ULj_5l2b-d4UT1FlwqZ8-11" value="&lt;span style=&quot;color: rgb(0, 0, 0); font-family: Helvetica; font-size: 20px; font-style: normal; font-variant-ligatures: normal; font-variant-caps: normal; font-weight: 400; letter-spacing: normal; orphans: 2; text-align: center; text-indent: 0px; text-transform: none; widows: 2; word-spacing: 0px; -webkit-text-stroke-width: 0px; white-space: normal; text-decoration-thickness: initial; text-decoration-style: initial; text-decoration-color: initial; float: none; display: inline !important;&quot;&gt;EtherCAT master&lt;/span&gt;" style="text;whiteSpace=wrap;html=1;labelBackgroundColor=none;" vertex="1" parent="1">
          <mxGeometry x="2800" y="900" width="170" height="50" as="geometry" />
        </mxCell>
        <mxCell id="ULj_5l2b-d4UT1FlwqZ8-12" value="&lt;span style=&quot;color: rgb(0, 0, 0); font-family: Helvetica; font-size: 20px; font-style: normal; font-variant-ligatures: normal; font-variant-caps: normal; font-weight: 400; letter-spacing: normal; orphans: 2; text-align: center; text-indent: 0px; text-transform: none; widows: 2; word-spacing: 0px; -webkit-text-stroke-width: 0px; white-space: normal; text-decoration-thickness: initial; text-decoration-style: initial; text-decoration-color: initial; float: none; display: inline !important;&quot;&gt;firmware_poulpe&lt;/span&gt;" style="text;whiteSpace=wrap;html=1;labelBackgroundColor=none;" vertex="1" parent="1">
          <mxGeometry x="3380" y="895" width="170" height="50" as="geometry" />
        </mxCell>
        <mxCell id="ULj_5l2b-d4UT1FlwqZ8-13" value="&lt;font style=&quot;font-size: 20px;&quot;&gt;Send&lt;/font&gt;&lt;div&gt;&lt;font style=&quot;font-size: 20px;&quot;&gt;Mailbox PDOs&lt;/font&gt;&lt;/div&gt;" style="text;html=1;align=center;verticalAlign=middle;whiteSpace=wrap;rounded=0;" vertex="1" parent="1">
          <mxGeometry x="3409" y="970" width="101" height="41" as="geometry" />
        </mxCell>
        <mxCell id="ULj_5l2b-d4UT1FlwqZ8-14" value="&lt;font style=&quot;font-size: 20px;&quot;&gt;~10Hz&lt;/font&gt;" style="text;html=1;align=center;verticalAlign=middle;whiteSpace=wrap;rounded=0;" vertex="1" parent="1">
          <mxGeometry x="3308" y="940" width="171" height="30" as="geometry" />
        </mxCell>
        <mxCell id="ULj_5l2b-d4UT1FlwqZ8-15" value="" style="rounded=0;whiteSpace=wrap;html=1;fontSize=20;fillColor=#fff2cc;strokeColor=#d6b656;" vertex="1" parent="1">
          <mxGeometry x="2790" y="1255" width="180" height="175" as="geometry" />
        </mxCell>
        <mxCell id="ULj_5l2b-d4UT1FlwqZ8-16" value="" style="rounded=0;whiteSpace=wrap;html=1;" vertex="1" parent="1">
          <mxGeometry x="2790" y="1300" width="180" height="106" as="geometry" />
        </mxCell>
        <mxCell id="ULj_5l2b-d4UT1FlwqZ8-17" value="" style="rounded=0;whiteSpace=wrap;html=1;fontSize=20;fillColor=#fff2cc;strokeColor=#d6b656;" vertex="1" parent="1">
          <mxGeometry x="3370" y="1250" width="180" height="180" as="geometry" />
        </mxCell>
        <mxCell id="ULj_5l2b-d4UT1FlwqZ8-18" value="" style="rounded=0;whiteSpace=wrap;html=1;" vertex="1" parent="1">
          <mxGeometry x="3370" y="1294" width="180" height="106" as="geometry" />
        </mxCell>
        <mxCell id="ULj_5l2b-d4UT1FlwqZ8-19" value="" style="endArrow=classic;html=1;rounded=0;entryX=0.008;entryY=0.376;entryDx=0;entryDy=0;entryPerimeter=0;strokeWidth=2;" edge="1" parent="1" target="ULj_5l2b-d4UT1FlwqZ8-17">
          <mxGeometry width="50" height="50" relative="1" as="geometry">
            <mxPoint x="2970" y="1317" as="sourcePoint" />
            <mxPoint x="3020" y="1267" as="targetPoint" />
          </mxGeometry>
        </mxCell>
        <mxCell id="ULj_5l2b-d4UT1FlwqZ8-20" value="" style="endArrow=none;html=1;rounded=0;startArrow=classic;startFill=1;endFill=0;strokeWidth=2;" edge="1" parent="1">
          <mxGeometry width="50" height="50" relative="1" as="geometry">
            <mxPoint x="2970" y="1381" as="sourcePoint" />
            <mxPoint x="3370" y="1380" as="targetPoint" />
          </mxGeometry>
        </mxCell>
        <mxCell id="ULj_5l2b-d4UT1FlwqZ8-21" value="&lt;font style=&quot;font-size: 20px;&quot;&gt;controlword&lt;/font&gt;" style="text;html=1;align=center;verticalAlign=middle;whiteSpace=wrap;rounded=0;" vertex="1" parent="1">
          <mxGeometry x="3131" y="1280" width="60" height="30" as="geometry" />
        </mxCell>
        <mxCell id="ULj_5l2b-d4UT1FlwqZ8-22" value="&lt;font style=&quot;font-size: 20px;&quot;&gt;statusword&lt;/font&gt;" style="text;html=1;align=center;verticalAlign=middle;whiteSpace=wrap;rounded=0;" vertex="1" parent="1">
          <mxGeometry x="3129" y="1376" width="60" height="30" as="geometry" />
        </mxCell>
        <mxCell id="ULj_5l2b-d4UT1FlwqZ8-23" value="" style="endArrow=classic;html=1;rounded=0;dashed=1;strokeWidth=2;dashPattern=1 1;" edge="1" parent="1">
          <mxGeometry width="50" height="50" relative="1" as="geometry">
            <mxPoint x="3372" y="1317" as="sourcePoint" />
            <mxPoint x="3371" y="1380" as="targetPoint" />
            <Array as="points">
              <mxPoint x="3390" y="1317" />
              <mxPoint x="3390" y="1380" />
            </Array>
          </mxGeometry>
        </mxCell>
        <mxCell id="ULj_5l2b-d4UT1FlwqZ8-24" value="&lt;font style=&quot;font-size: 20px;&quot;&gt;watchdog counter&lt;/font&gt;" style="text;html=1;align=center;verticalAlign=middle;whiteSpace=wrap;rounded=0;" vertex="1" parent="1">
          <mxGeometry x="2839" y="1328" width="82" height="48" as="geometry" />
        </mxCell>
        <mxCell id="ULj_5l2b-d4UT1FlwqZ8-25" value="&lt;span style=&quot;color: rgb(0, 0, 0); font-family: Helvetica; font-size: 20px; font-style: normal; font-variant-ligatures: normal; font-variant-caps: normal; font-weight: 400; letter-spacing: normal; orphans: 2; text-align: center; text-indent: 0px; text-transform: none; widows: 2; word-spacing: 0px; -webkit-text-stroke-width: 0px; white-space: normal; text-decoration-thickness: initial; text-decoration-style: initial; text-decoration-color: initial; float: none; display: inline !important;&quot;&gt;EtherCAT master&lt;/span&gt;" style="text;whiteSpace=wrap;html=1;labelBackgroundColor=none;" vertex="1" parent="1">
          <mxGeometry x="2810" y="1260" width="170" height="50" as="geometry" />
        </mxCell>
        <mxCell id="ULj_5l2b-d4UT1FlwqZ8-26" value="&lt;span style=&quot;color: rgb(0, 0, 0); font-family: Helvetica; font-size: 20px; font-style: normal; font-variant-ligatures: normal; font-variant-caps: normal; font-weight: 400; letter-spacing: normal; orphans: 2; text-align: center; text-indent: 0px; text-transform: none; widows: 2; word-spacing: 0px; -webkit-text-stroke-width: 0px; white-space: normal; text-decoration-thickness: initial; text-decoration-style: initial; text-decoration-color: initial; float: none; display: inline !important;&quot;&gt;firmware_poulpe&lt;/span&gt;" style="text;whiteSpace=wrap;html=1;labelBackgroundColor=none;" vertex="1" parent="1">
          <mxGeometry x="3390" y="1255" width="170" height="50" as="geometry" />
        </mxCell>
        <mxCell id="ULj_5l2b-d4UT1FlwqZ8-27" value="&lt;font style=&quot;font-size: 20px;&quot;&gt;watchdog replay&lt;/font&gt;" style="text;html=1;align=center;verticalAlign=middle;whiteSpace=wrap;rounded=0;" vertex="1" parent="1">
          <mxGeometry x="3419" y="1323" width="82" height="48" as="geometry" />
        </mxCell>
        <mxCell id="ULj_5l2b-d4UT1FlwqZ8-28" value="&lt;font style=&quot;font-size: 20px;&quot;&gt;~1kHz&lt;/font&gt;" style="text;html=1;align=center;verticalAlign=middle;whiteSpace=wrap;rounded=0;" vertex="1" parent="1">
          <mxGeometry x="2850" y="1300" width="171" height="30" as="geometry" />
        </mxCell>
      </root>
    </mxGraphModel>
  </diagram>
</mxfile>
